{
    "frames": [
        {
            "media_type": "video",
            "stream_index": 0,
            "key_frame": 1,
            "pts": 0,
            "pts_time": "0.000000",
            "pkt_dts": 0,
            "pkt_dts_time": "0.000000",
            "best_effort_timestamp": 0,
            "best_effort_timestamp_time": "0.000000",
            "pkt_duration": 512,
            "pkt_duration_time": "0.040000",
            "duration": 512,
            "duration_time": "0.040000",
            "pkt_pos": "2555",
            "pkt_size": "26065",
            "width": 1280,
            "height": 720,
            "crop_top": 0,
            "crop_bottom": 0,
            "crop_left": 0,
            "crop_right": 0,
            "pix_fmt": "yuvj420p",
            "sample_aspect_ratio": "1:1",
            "pict_type": "I",
            "coded_picture_number": 0,
            "display_picture_number": 0,
            "interlaced_frame": 0,
            "top_field_first": 0,
            "repeat_pict": 0,
            "color_range": "pc",
            "color_space": "bt470bg",
            "chroma_location": "center",
            "side_data_list": [
                {
                    "side_data_type": "ICC profile",
                    "size": 456
                },
                {
                    "side_data_type": "H.26[45] User Data Unregistered SEI message"
                }
            ]
        },
        {
            "media_type": "video",
            "stream_index": 0,
            "key_frame": 0,
            "pts": 512,
            "pts_time": "0.040000",
            "pkt_dts": 512,
            "pkt_dts_time": "0.040000",
            "best_effort_timestamp": 512,
            "best_effort_timestamp_time": "0.040000",
            "pkt_duration": 512,
            "pkt_duration_time": "0.040000",
            "duration": 512,
            "duration_time": "0.040000",
            "pkt_pos": "30657",
            "pkt_size": "52",
            "width": 1280,
            "height": 720,
            "crop_top": 0,
            "crop_bottom": 0,
            "crop_left": 0,
            "crop_right": 0,
            "pix_fmt": "yuvj420p",
            "sample_aspect_ratio": "1:1",
            "pict_type": "B",
            "coded_picture_number": 3,
            "display_picture_number": 0,
            "interlaced_frame": 0,
            "top_field_first": 0,
            "repeat_pict": 0,
            "color_range": "pc",
            "color_space": "bt470bg",
            "chroma_location": "center",
            "side_data_list": [
                {
                    "side_data_type": "ICC profile",
                    "size": 456
                }
            ]
        },
        {
            "media_type": "video",
            "stream_index": 0,
            "key_frame": 0,
            "pts": 1024,
            "pts_time": "0.080000",
            "pkt_dts": 1024,
            "pkt_dts_time": "0.080000",
            "best_effort_timestamp": 1024,
            "best_effort_timestamp_time": "0.080000",
            "pkt_duration": 512,
            "pkt_duration_time": "0.040000",
            "duration": 512,
            "duration_time": "0.040000",
            "pkt_pos": "28912",
            "pkt_size": "53",
            "width": 1280,
            "height": 720,
            "crop_top": 0,
            "crop_bottom": 0,
            "crop_left": 0,
            "crop_right": 0,
            "pix_fmt": "yuvj420p",
            "sample_aspect_ratio": "1:1",
            "pict_type": "B",
            "coded_picture_number": 2,
            "display_picture_number": 0,
            "interlaced_frame": 0,
            "top_field_first": 0,
            "repeat_pict": 0,
            "color_range": "pc",
            "color_space": "bt470bg",
            "chroma_location": "center",
            "side_data_list": [
                {
                    "side_data_type": "ICC profile",
                    "size": 456
                }
            ]
        },
        {
            "media_type": "video",
            "stream_index": 0,
            "key_frame": 0,
            "pts": 1536,
            "pts_time": "0.120000",
            "pkt_dts": 1536,
            "pkt_dts_time": "0.120000",
            "best_effort_timestamp": 1536,
            "best_effort_timestamp_time": "0.120000",
            "pkt_duration": 512,
            "pkt_duration_time": "0.040000",
            "duration": 512,
            "duration_time": "0.040000",
            "pkt_pos": "32402",
            "pkt_size": "38",
            "width": 1280,
            "height": 720,
            "crop_top": 0,
            "crop_bottom": 0,
            "crop_left": 0,
            "crop_right": 0,
            "pix_fmt": "yuvj420p",
            "sample_aspect_ratio": "1:1",
            "pict_type": "B",
            "coded_picture_number": 4,
            "display_picture_number": 0,
            "interlaced_frame": 0,
            "top_field_first": 0,
            "repeat_pict": 0,
            "color_range": "pc",
            "color_space": "bt470bg",
            "chroma_location": "center",
            "side_data_list": [
                {
                    "side_data_type": "ICC profile",
                    "size": 456
                }
            ]
        },
        {
            "media_type": "video",
            "stream_index": 0,
            "key_frame": 0,
            "pts": 2048,
            "pts_time": "0.160000",
            "pkt_dts": 2048,
            "pkt_dts_time": "0.160000",
            "best_effort_timestamp": 2048,
            "best_effort_timestamp_time": "0.160000",
            "pkt_duration": 512,
            "pkt_duration_time": "0.040000",
            "duration": 512,
            "duration_time": "0.040000",
            "pkt_pos": "28620",
            "pkt_size": "292",
            "width": 1280,
            "height": 720,
            "crop_top": 0,
            "crop_bottom": 0,
            "crop_left": 0,
            "crop_right": 0,
            "pix_fmt": "yuvj420p",
            "sample_aspect_ratio": "1:1",
            "pict_type": "P",
            "coded_picture_number": 1,
            "display_picture_number": 0,
            "interlaced_frame": 0,
            "top_field_first": 0,
            "repeat_pict": 0,
            "color_range": "pc",
            "color_space": "bt470bg",
            "chroma_location": "center",
            "side_data_list": [
                {
                    "side_data_type": "ICC profile",
                    "size": 456
                }
            ]
        },
        {
            "media_type": "video",
            "stream_index": 0,
            "key_frame": 0,
            "pts": 2560,
            "pts_time": "0.200000",
            "pkt_dts": 2560,
            "pkt_dts_time": "0.200000",
            "best_effort_timestamp": 2560,
            "best_effort_timestamp_time": "0.200000",
            "pkt_duration": 512,
            "pkt_duration_time": "0.040000",
            "duration": 512,
            "duration_time": "0.040000",
            "pkt_pos": "38400",
            "pkt_size": "40",
            "width": 1280,
            "height": 720,
            "crop_top": 0,
            "crop_bottom": 0,
            "crop_left": 0,
            "crop_right": 0,
            "pix_fmt": "yuvj420p",
            "sample_aspect_ratio": "1:1",
            "pict_type": "B",
            "coded_picture_number": 7,
            "display_picture_number": 0,
            "interlaced_frame": 0,
            "top_field_first": 0,
            "repeat_pict": 0,
            "color_range": "pc",
            "color_space": "bt470bg",
            "chroma_location": "center",
            "side_data_list": [
                {
                    "side_data_type": "ICC profile",
                    "size": 456
                }
            ]
        },
        {
            "media_type": "video",
            "stream_index": 0,
            "key_frame": 0,
            "pts": 3072,
            "pts_time": "0.240000",
            "pkt_dts": 3072,
            "pkt_dts_time": "0.240000",
            "best_effort_timestamp": 3072,
            "best_effort_timestamp_time": "0.240000",
            "pkt_duration": 512,
            "pkt_duration_time": "0.040000",
            "duration": 512,
            "duration_time": "0.040000",
            "pkt_pos": "36300",
            "pkt_size": "407",
            "width": 1280,
            "height": 720,
            "crop_top": 0,
            "crop_bottom": 0,
            "crop_left": 0,
            "crop_right": 0,
            "pix_fmt": "yuvj420p",
            "sample_aspect_ratio": "1:1",
            "pict_type": "B",
            "coded_picture_number": 6,
            "display_picture_number": 0,
            "interlaced_frame": 0,
            "top_field_first": 0,
            "repeat_pict": 0,
            "color_range": "pc",
            "color_space": "bt470bg",
            "chroma_location": "center",
            "side_data_list": [
                {
                    "side_data_type": "ICC profile",
                    "size": 456
                }
            ]
        },
        {
            "media_type": "video",
            "stream_index": 0,
            "key_frame": 0,
            "pts": 3584,
            "pts_time": "0.280000",
            "pkt_dts": 3584,
            "pkt_dts_time": "0.280000",
            "best_effort_timestamp": 3584,
            "best_effort_timestamp_time": "0.280000",
            "pkt_duration": 512,
            "pkt_duration_time": "0.040000",
            "duration": 512,
            "duration_time": "0.040000",
            "pkt_pos": "40133",
            "pkt_size": "414",
            "width": 1280,
            "height": 720,
            "crop_top": 0,
            "crop_bottom": 0,
            "crop_left": 0,
            "crop_right": 0,
            "pix_fmt": "yuvj420p",
            "sample_aspect_ratio": "1:1",
            "pict_type": "B",
            "coded_picture_number": 8,
            "display_picture_number": 0,
            "interlaced_frame": 0,
            "top_field_first": 0,
            "repeat_pict": 0,
            "color_range": "pc",
            "color_space": "bt470bg",
            "chroma_location": "center",
            "side_data_list": [
                {
                    "side_data_type": "ICC profile",
                    "size": 456
                }
            ]
        },
        {
            "media_type": "video",
            "stream_index": 0,
            "key_frame": 0,
            "pts": 4096,
            "pts_time": "0.320000",
            "pkt_dts": 4096,
            "pkt_dts_time": "0.320000",
            "best_effort_timestamp": 4096,
            "best_effort_timestamp_time": "0.320000",
            "pkt_duration": 512,
            "pkt_duration_time": "0.040000",
            "duration": 512,
            "duration_time": "0.040000",
            "pkt_pos": "34133",
            "pkt_size": "475",
            "width": 1280,
            "height": 720,
            "crop_top": 0,
            "crop_bottom": 0,
            "crop_left": 0,
            "crop_right": 0,
            "pix_fmt": "yuvj420p",
            "sample_aspect_ratio": "1:1",
            "pict_type": "P",
            "coded_picture_number": 5,
            "display_picture_number": 0,
            "interlaced_frame": 0,
            "top_field_first": 0,
            "repeat_pict": 0,
            "color_range": "pc",
            "color_space": "bt470bg",
            "chroma_location": "center",
            "side_data_list": [
                {
                    "side_data_type": "ICC profile",
                    "size": 456
                }
            ]
        },
        {
            "media_type": "video",
            "stream_index": 0,
            "key_frame": 0,
            "pts": 4608,
            "pts_time": "0.360000",
            "pkt_dts": 4608,
            "pkt_dts_time": "0.360000",
            "best_effort_timestamp": 4608,
            "best_effort_timestamp_time": "0.360000",
            "pkt_duration": 512,
            "pkt_duration_time": "0.040000",
            "duration": 512,
            "duration_time": "0.040000",
            "pkt_pos": "45777",
            "pkt_size": "42",
            "width": 1280,
            "height": 720,
            "crop_top": 0,
            "crop_bottom": 0,
            "crop_left": 0,
            "crop_right": 0,
            "pix_fmt": "yuvj420p",
            "sample_aspect_ratio": "1:1",
            "pict_type": "B",
            "coded_picture_number": 11,
            "display_picture_number": 0,
            "interlaced_frame": 0,
            "top_field_first": 0,
            "repeat_pict": 0,
            "color_range": "pc",
            "color_space": "bt470bg",
            "chroma_location": "center",
            "side_data_list": [
                {
                    "side_data_type": "ICC profile",
                    "size": 456
                }
            ]
        },
        {
            "media_type": "video",
            "stream_index": 0,
            "key_frame": 0,
            "pts": 5120,
            "pts_time": "0.400000",
            "pkt_dts": 5120,
            "pkt_dts_time": "0.400000",
            "best_effort_timestamp": 5120,
            "best_effort_timestamp_time": "0.400000",
            "pkt_duration": 512,
            "pkt_duration_time": "0.040000",
            "duration": 512,
            "duration_time": "0.040000",
            "pkt_pos": "44034",
            "pkt_size": "51",
            "width": 1280,
            "height": 720,
            "crop_top": 0,
            "crop_bottom": 0,
            "crop_left": 0,
            "crop_right": 0,
            "pix_fmt": "yuvj420p",
            "sample_aspect_ratio": "1:1",
            "pict_type": "B",
            "coded_picture_number": 10,
            "display_picture_number": 0,
            "interlaced_frame": 0,
            "top_field_first": 0,
            "repeat_pict": 0,
            "color_range": "pc",
            "color_space": "bt470bg",
            "chroma_location": "center",
            "side_data_list": [
                {
                    "side_data_type": "ICC profile",
                    "size": 456
                }
            ]
        },
        {
            "media_type": "video",
            "stream_index": 0,
            "key_frame": 0,
            "pts": 5632,
            "pts_time": "0.440000",
            "pkt_dts": 5632,
            "pkt_dts_time": "0.440000",
            "best_effort_timestamp": 5632,
            "best_effort_timestamp_time": "0.440000",
            "pkt_duration": 512,
            "pkt_duration_time": "0.040000",
            "duration": 512,
            "duration_time": "0.040000",
            "pkt_pos": "47512",
            "pkt_size": "199",
            "width": 1280,
            "height": 720,
            "crop_top": 0,
            "crop_bottom": 0,
            "crop_left": 0,
            "crop_right": 0,
            "pix_fmt": "yuvj420p",
            "sample_aspect_ratio": "1:1",
            "pict_type": "B",
            "coded_picture_number": 12,
            "display_picture_number": 0,
            "interlaced_frame": 0,
            "top_field_first": 0,
            "repeat_pict": 0,
            "color_range": "pc",
            "color_space": "bt470bg",
            "chroma_location": "center",
            "side_data_list": [
                {
                    "side_data_type": "ICC profile",
                    "size": 456
                }
            ]
        },
        {
            "media_type": "video",
            "stream_index": 0,
            "key_frame": 0,
            "pts": 6144,
            "pts_time": "0.480000",
            "pkt_dts": 6144,
            "pkt_dts_time": "0.480000",
            "best_effort_timestamp": 6144,
            "best_effort_timestamp_time": "0.480000",
            "pkt_duration": 512,
            "pkt_duration_time": "0.040000",
            "duration": 512,
            "duration_time": "0.040000",
            "pkt_pos": "42239",
            "pkt_size": "948",
            "width": 1280,
            "height": 720,
            "crop_top": 0,
            "crop_bottom": 0,
            "crop_left": 0,
            "crop_right": 0,
            "pix_fmt": "yuvj420p",
            "sample_aspect_ratio": "1:1",
            "pict_type": "P",
            "coded_picture_number": 9,
            "display_picture_number": 0,
            "interlaced_frame": 0,
            "top_field_first": 0,
            "repeat_pict": 0,
            "color_range": "pc",
            "color_space": "bt470bg",
            "chroma_location": "center",
            "side_data_list": [
                {
                    "side_data_type": "ICC profile",
                    "size": 456
                }
            ]
        },
        {
            "media_type": "video",
            "stream_index": 0,
            "key_frame": 0,
            "pts": 6656,
            "pts_time": "0.520000",
            "pkt_dts": 6656,
            "pkt_dts_time": "0.520000",
            "best_effort_timestamp": 6656,
            "best_effort_timestamp_time": "0.520000",
            "pkt_duration": 512,
            "pkt_duration_time": "0.040000",
            "duration": 512,
            "duration_time": "0.040000",
            "pkt_pos": "53900",
            "pkt_size": "326",
            "width": 1280,
            "height": 720,
            "crop_top": 0,
            "crop_bottom": 0,
            "crop_left": 0,
            "crop_right": 0,
            "pix_fmt": "yuvj420p",
            "sample_aspect_ratio": "1:1",
            "pict_type": "B",
            "coded_picture_number": 15,
            "display_picture_number": 0,
            "interlaced_frame": 0,
            "top_field_first": 0,
            "repeat_pict": 0,
            "color_range": "pc",
            "color_space": "bt470bg",
            "chroma_location": "center",
            "side_data_list": [
                {
                    "side_data_type": "ICC profile",
                    "size": 456
                }
            ]
        },
        {
            "media_type": "video",
            "stream_index": 0,
            "key_frame": 0,
            "pts": 7168,
            "pts_time": "0.560000",
            "pkt_dts": 7168,
            "pkt_dts_time": "0.560000",
            "best_effort_timestamp": 7168,
            "best_effort_timestamp_time": "0.560000",
            "pkt_duration": 512,
            "pkt_duration_time": "0.040000",
            "duration": 512,
            "duration_time": "0.040000",
            "pkt_pos": "52125",
            "pkt_size": "82",
            "width": 1280,
            "height": 720,
            "crop_top": 0,
            "crop_bottom": 0,
            "crop_left": 0,
            "crop_right": 0,
            "pix_fmt": "yuvj420p",
            "sample_aspect_ratio": "1:1",
            "pict_type": "B",
            "coded_picture_number": 14,
            "display_picture_number": 0,
            "interlaced_frame": 0,
            "top_field_first": 0,
            "repeat_pict": 0,
            "color_range": "pc",
            "color_space": "bt470bg",
            "chroma_location": "center",
            "side_data_list": [
                {
                    "side_data_type": "ICC profile",
                    "size": 456
                }
            ]
        },
        {
            "media_type": "video",
            "stream_index": 0,
            "key_frame": 0,
            "pts": 7680,
            "pts_time": "0.600000",
            "pkt_dts": 7680,
            "pkt_dts_time": "0.600000",
            "best_effort_timestamp": 7680,
            "best_effort_timestamp_time": "0.600000",
            "pkt_duration": 512,
            "pkt_duration_time": "0.040000",
            "duration": 512,
            "duration_time": "0.040000",
            "pkt_pos": "55919",
            "pkt_size": "45",
            "width": 1280,
            "height": 720,
            "crop_top": 0,
            "crop_bottom": 0,
            "crop_left": 0,
            "crop_right": 0,
            "pix_fmt": "yuvj420p",
            "sample_aspect_ratio": "1:1",
            "pict_type": "B",
            "coded_picture_number": 16,
            "display_picture_number": 0,
            "interlaced_frame": 0,
            "top_field_first": 0,
            "repeat_pict": 0,
            "color_range": "pc",
            "color_space": "bt470bg",
            "chroma_location": "center",
            "side_data_list": [
                {
                    "side_data_type": "ICC profile",
                    "size": 456
                }
            ]
        },
        {
            "media_type": "video",
            "stream_index": 0,
            "key_frame": 0,
            "pts": 8192,
            "pts_time": "0.640000",
            "pkt_dts": 8192,
            "pkt_dts_time": "0.640000",
            "best_effort_timestamp": 8192,
            "best_effort_timestamp_time": "0.640000",
            "pkt_duration": 512,
            "pkt_duration_time": "0.040000",
            "duration": 512,
            "duration_time": "0.040000",
            "pkt_pos": "49404",
            "pkt_size": "1029",
            "width": 1280,
            "height": 720,
            "crop_top": 0,
            "crop_bottom": 0,
            "crop_left": 0,
            "crop_right": 0,
            "pix_fmt": "yuvj420p",
            "sample_aspect_ratio": "1:1",
            "pict_type": "P",
            "coded_picture_number": 13,
            "display_picture_number": 0,
            "interlaced_frame": 0,
            "top_field_first": 0,
            "repeat_pict": 0,
            "color_range": "pc",
            "color_space": "bt470bg",
            "chroma_location": "center",
            "side_data_list": [
                {
                    "side_data_type": "ICC profile",
                    "size": 456
                }
            ]
        },
        {
            "media_type": "video",
            "stream_index": 0,
            "key_frame": 0,
            "pts": 8704,
            "pts_time": "0.680000",
            "pkt_dts": 8704,
            "pkt_dts_time": "0.680000",
            "best_effort_timestamp": 8704,
            "best_effort_timestamp_time": "0.680000",
            "pkt_duration": 512,
            "pkt_duration_time": "0.040000",
            "duration": 512,
            "duration_time": "0.040000",
            "pkt_pos": "59084",
            "pkt_size": "579",
            "width": 1280,
            "height": 720,
            "crop_top": 0,
            "crop_bottom": 0,
            "crop_left": 0,
            "crop_right": 0,
            "pix_fmt": "yuvj420p",
            "sample_aspect_ratio": "1:1",
            "pict_type": "B",
            "coded_picture_number": 18,
            "display_picture_number": 0,
            "interlaced_frame": 0,
            "top_field_first": 0,
            "repeat_pict": 0,
            "color_range": "pc",
            "color_space": "bt470bg",
            "chroma_location": "center",
            "side_data_list": [
                {
                    "side_data_type": "ICC profile",
                    "size": 456
                }
            ]
        },
        {
            "media_type": "video",
            "stream_index": 0,
            "key_frame": 0,
            "pts": 9216,
            "pts_time": "0.720000",
            "best_effort_timestamp": 9216,
            "best_effort_timestamp_time": "0.720000",
            "pkt_duration": 512,
            "pkt_duration_time": "0.040000",
            "duration": 512,
            "duration_time": "0.040000",
            "pkt_pos": "61355",
            "pkt_size": "541",
            "width": 1280,
            "height": 720,
            "crop_top": 0,
            "crop_bottom": 0,
            "crop_left": 0,
            "crop_right": 0,
            "pix_fmt": "yuvj420p",
            "sample_aspect_ratio": "1:1",
            "pict_type": "B",
            "coded_picture_number": 19,
            "display_picture_number": 0,
            "interlaced_frame": 0,
            "top_field_first": 0,
            "repeat_pict": 0,
            "color_range": "pc",
            "color_space": "bt470bg",
            "chroma_location": "center",
            "side_data_list": [
                {
                    "side_data_type": "ICC profile",
                    "size": 456
                }
            ]
        },
        {
            "media_type": "video",
            "stream_index": 0,
            "key_frame": 0,
            "pts": 9728,
            "pts_time": "0.760000",
            "best_effort_timestamp": 9728,
            "best_effort_timestamp_time": "0.760000",
            "pkt_duration": 512,
            "pkt_duration_time": "0.040000",
            "duration": 512,
            "duration_time": "0.040000",
            "pkt_pos": "57656",
            "pkt_size": "581",
            "width": 1280,
            "height": 720,
            "crop_top": 0,
            "crop_bottom": 0,
            "crop_left": 0,
            "crop_right": 0,
            "pix_fmt": "yuvj420p",
            "sample_aspect_ratio": "1:1",
            "pict_type": "P",
            "coded_picture_number": 17,
            "display_picture_number": 0,
            "interlaced_frame": 0,
            "top_field_first": 0,
            "repeat_pict": 0,
            "color_range": "pc",
            "color_space": "bt470bg",
            "chroma_location": "center",
            "side_data_list": [
                {
                    "side_data_type": "ICC profile",
                    "size": 456
                }
            ]
        }
    ]
}
